<?xml version="1.0" encoding="UTF-8" standalone="no"?> <svg id="Layer_x0020_1" xmlns="http://www.w3.org/2000/svg" width="900" height="900" viewBox="0 0 900 900">
  <circle id="Ellipse_21" data-name="Ellipse 21" cx="450" cy="450" r="450" fill="#f5b9b9"/>
  <path id="Path_144" data-name="Path 144" d="M553.678,524.248a7.987,7.987,0,0,0,8.438,13.564l92.113-57.182c.445-.276.966-.565,1.554-.857h.011c.193-.1.379-.2.56-.307a36.044,36.044,0,0,1,18.112-2.77c12.18,1.23,18.149,9.75,14.842,22.111a18.379,18.379,0,0,1-8.595,11.31c-14.024,8.1-29.875,18.732-47.057,30.261-63.477,42.589-145.731,97.778-201.411,69.529l.008-.018q-.337-.17-.68-.306l-53.353-25.328c-4.068-2.431-32.5-18.083-56.952,3.471L289.582,608.87a7.974,7.974,0,1,0,8.875,13.25l31.617-21.1a8.038,8.038,0,0,0,1.483-1.058l-.008-.009c16.111-14.5,35.444-3.815,38.206-2.163a8.029,8.029,0,0,0,1.219.716L371,598.5l53.729,25.507.281.15.007-.014.208.1v0c63.958,32.272,150.5-25.792,217.3-70.612,17.067-11.451,32.811-22.016,46.12-29.7a34.218,34.218,0,0,0,16.095-21c5.791-21.631-6.572-39.88-28.717-42.112a52.523,52.523,0,0,0-26.621,4.307,7.921,7.921,0,0,0-.758.331l0,0q-1.426.712-2.859,1.6l-92.113,57.182Z" fill="#250e1e"/>
  <path id="Path_145" data-name="Path 145" d="M487.276,550.446l43.235-.032a19.353,19.353,0,0,0,13.723-33.032l-.038-.037h0l.015-.015a19.358,19.358,0,0,0-13.7-5.685c-55.156,0-84.907-16.384-110.324-30.38-27.588-15.191-49.55-27.279-98.167-7.115-.181.086-.366.168-.555.242l-.019-.008c-.032.012-11.418,4.358-24.05,10.278a7.969,7.969,0,0,1-6.751-14.438c13.146-6.161,24.076-10.366,24.932-10.694l.041-.017,0-.013.33-.12c55.667-23.092,80.6-9.365,111.931,7.884,23.744,13.075,51.536,28.379,102.638,28.379a35.253,35.253,0,0,1,24.967,10.389h.031l.093.094a35.387,35.387,0,0,1-25.091,60.291H487.841c-5.109.325-50.562,2.837-77.35-9.039a7.989,7.989,0,0,1,6.437-14.624c23.291,10.325,64.884,8.04,70.35,7.694Z" fill="#250e1e"/>
  <path id="Path_146" data-name="Path 146" d="M215.094,454.967h65.832a21.135,21.135,0,0,1,21.094,21.093V617.477a21.135,21.135,0,0,1-21.094,21.093H215.094A21.135,21.135,0,0,1,194,617.477V476.06a21.135,21.135,0,0,1,21.094-21.093Zm65.832,16H215.094A5.126,5.126,0,0,0,210,476.06V617.477a5.126,5.126,0,0,0,5.093,5.092h65.832a5.126,5.126,0,0,0,5.093-5.092V476.06a5.126,5.126,0,0,0-5.093-5.092Z" fill="#250e1e"/>
  <path id="Path_147" data-name="Path 147" d="M557.837,283.342a55.167,55.167,0,0,1,11.252-12.629c7.734-6.187,16.814-9.281,28.72-9.281a48.02,48.02,0,0,1,48,48c0,21.959-10.65,43.481-26.624,64.78-15.466,20.623-35.594,40.75-55.72,60.875h0a8,8,0,0,1-11.314,0l-.048-.05c-20.108-20.108-40.215-40.219-55.669-60.826-15.973-21.3-26.624-42.82-26.624-64.78a48.02,48.02,0,0,1,48-48c19.084,0,30.4,7.3,40.028,21.911Zm21.19-.193c-5.093,4.074-9.382,10.518-13.78,19.22a8,8,0,0,1-14.594.638l.03-.015c-8.519-17.039-16.8-25.559-32.874-25.559a32.01,32.01,0,0,0-32,32c0,18.039,9.352,36.52,23.374,55.218,13.153,17.537,30.682,35.482,48.624,53.464,17.943-17.982,35.472-35.927,48.625-53.464,14.024-18.7,23.374-37.18,23.374-55.218a32.01,32.01,0,0,0-32-32C589.716,277.433,583.791,279.339,579.027,283.15Z" fill="#250e1e"/>
  <path id="Path_148" data-name="Path 148" d="M561.386,306.585a8,8,0,0,1-10.733-3.578l.03-.015c-8.519-17.039-16.8-25.559-32.874-25.559a32.01,32.01,0,0,0-32,32c0,18.039,9.352,36.52,23.374,55.218,13.153,17.537,30.682,35.482,48.624,53.464,17.943-17.982,35.472-35.927,48.625-53.464,14.024-18.7,23.374-37.18,23.374-55.218a32.01,32.01,0,0,0-32-32c-8.093,0-14.018,1.906-18.782,5.717-5.093,4.074-9.382,10.518-13.78,19.22A7.971,7.971,0,0,1,561.386,306.585Z" fill="#db5656" fill-rule="evenodd"/>
  <path id="Path_149" data-name="Path 149" d="M655.783,479.772Zm-235.6,1.492c-27.588-15.191-49.55-27.279-98.167-7.115l-.555.242-.019-.008c-.028.011-8.767,3.346-19.424,8.152V600.571l19.247-12.842c24.451-21.554,52.884-5.9,56.952-3.471l53.353,25.328.68.306-.008.018c55.68,28.248,137.934-26.94,201.411-69.529,17.183-11.529,33.033-22.165,47.057-30.261a18.38,18.38,0,0,0,8.595-11.31c3.307-12.361-2.662-20.882-14.842-22.111a36.044,36.044,0,0,0-18.112,2.77l-.57.306c-.588.293-1.109.581-1.554.857L565.6,535.652a35.495,35.495,0,0,1-35.085,30.764H487.839c-5.109.325-50.562,2.837-77.35-9.039a7.989,7.989,0,0,1,6.437-14.624c23.291,10.325,64.884,8.04,70.35,7.694l43.235-.032a19.353,19.353,0,0,0,13.723-33.032l-.038-.038.015-.015a19.358,19.358,0,0,0-13.7-5.685c-55.156,0-84.907-16.384-110.324-30.38Z" fill="#fad190" fill-rule="evenodd"/>
  <path id="Path_150" data-name="Path 150" d="M286.019,617.477V476.06a5.126,5.126,0,0,0-5.093-5.092H215.094A5.126,5.126,0,0,0,210,476.06V617.477a5.126,5.126,0,0,0,5.093,5.092h65.832a5.126,5.126,0,0,0,5.093-5.092Z" fill="#7fe289" fill-rule="evenodd"/>
</svg>
